<svg id="visual" viewBox="0 0 960 540" width="960" height="540" xmlns="http://www.w3.org/2000/svg" xmlns:xlink="http://www.w3.org/1999/xlink" version="1.1"><path d="M0 382L137 379L274 340L411 333L549 355L686 370L823 400L960 400L960 541L823 541L686 541L549 541L411 541L274 541L137 541L0 541Z" fill="#1e140d"></path><path d="M0 402L137 357L274 411L411 390L549 403L686 426L823 418L960 375L960 541L823 541L686 541L549 541L411 541L274 541L137 541L0 541Z" fill="#361907"></path><path d="M0 400L137 415L274 402L411 423L549 430L686 397L823 413L960 437L960 541L823 541L686 541L549 541L411 541L274 541L137 541L0 541Z" fill="#4f1c02"></path><path d="M0 437L137 484L274 457L411 439L549 440L686 450L823 464L960 485L960 541L823 541L686 541L549 541L411 541L274 541L137 541L0 541Z" fill="#6a1b00"></path><path d="M0 480L137 485L274 502L411 509L549 509L686 504L823 477L960 488L960 541L823 541L686 541L549 541L411 541L274 541L137 541L0 541Z" fill="#871400"></path></svg>