<svg id="visual" viewBox="0 0 450 900" width="450" height="900" xmlns="http://www.w3.org/2000/svg" xmlns:xlink="http://www.w3.org/1999/xlink" version="1.1"><path d="M0 637L64 632L129 567L193 555L257 593L321 617L386 667L450 667L450 901L386 901L321 901L257 901L193 901L129 901L64 901L0 901Z" fill="#1e140d"></path><path d="M0 670L64 596L129 685L193 651L257 673L321 710L386 697L450 625L450 901L386 901L321 901L257 901L193 901L129 901L64 901L0 901Z" fill="#361907"></path><path d="M0 667L64 693L129 671L193 706L257 718L321 663L386 689L450 729L450 901L386 901L321 901L257 901L193 901L129 901L64 901L0 901Z" fill="#4f1c02"></path><path d="M0 729L64 807L129 762L193 733L257 734L321 750L386 774L450 809L450 901L386 901L321 901L257 901L193 901L129 901L64 901L0 901Z" fill="#6a1b00"></path><path d="M0 801L64 809L129 838L193 849L257 849L321 841L386 795L450 813L450 901L386 901L321 901L257 901L193 901L129 901L64 901L0 901Z" fill="#871400"></path></svg>